<svg width="27" height="130" viewBox="0 0 27 130" fill="none" xmlns="http://www.w3.org/2000/svg">
<g clip-path="url(#clip0_322_2)">
<path d="M28.1718 65.0001C28.1718 68.7468 26.6881 72.3399 24.047 74.9892C21.4058 77.6385 17.8237 79.1268 14.0886 79.1268C10.3535 79.1268 6.77142 77.6385 4.13031 74.9892C1.48919 72.3399 0.00543213 68.7468 0.00543213 65.0001C0.00543213 61.2535 1.48919 57.6603 4.13031 55.0111C6.77142 52.3618 10.3535 50.8735 14.0886 50.8735C17.8237 50.8735 21.4058 52.3618 24.047 55.0111C26.6881 57.6603 28.1718 61.2535 28.1718 65.0001V65.0001Z" fill="black"/>
<path d="M28.171 14.1267C28.171 17.8733 26.6873 21.4665 24.0462 24.1157C21.405 26.765 17.8229 28.2533 14.0878 28.2533C10.3527 28.2533 6.77061 26.765 4.1295 24.1157C1.48839 21.4665 0.00462341 17.8733 0.00462341 14.1267C0.00462341 10.38 1.48839 6.78687 4.1295 4.1376C6.77061 1.48834 10.3527 0 14.0878 0C17.8229 0 21.405 1.48834 24.0462 4.1376C26.6873 6.78687 28.171 10.38 28.171 14.1267V14.1267Z" fill="black"/>
<path d="M28.1718 115.868C28.1718 119.615 26.6881 123.208 24.047 125.857C21.4058 128.506 17.8237 129.995 14.0886 129.995C10.3535 129.995 6.77142 128.506 4.13031 125.857C1.48919 123.208 0.00543213 119.615 0.00543213 115.868C0.00543213 112.121 1.48919 108.528 4.13031 105.879C6.77142 103.23 10.3535 101.741 14.0886 101.741C17.8237 101.741 21.4058 103.23 24.047 105.879C26.6881 108.528 28.1718 112.121 28.1718 115.868Z" fill="black"/>
</g>
<defs>
<clipPath id="clip0_322_2">
<rect width="27" height="130" fill="white"/>
</clipPath>
</defs>
</svg>
