<svg width="58" height="68" viewBox="0 0 58 68" fill="none" xmlns="http://www.w3.org/2000/svg">
<path d="M34 0.75V17.375C34 19.2647 34.7507 21.0769 36.0869 22.4131C37.4231 23.7493 39.2353 24.5 41.125 24.5H57.75V60.125C57.75 62.0147 56.9993 63.8269 55.6631 65.1631C54.3269 66.4993 52.5147 67.25 50.625 67.25H47.8462C48.2937 65.9821 48.3733 64.6134 48.0757 63.3021C47.7782 61.9909 47.1156 60.7906 46.1647 59.84L36.6647 50.34C38.4899 46.5247 39.1421 42.2537 38.539 38.0675C37.9358 33.8813 36.1043 29.9682 33.2762 26.8233C30.4482 23.6785 26.7508 21.4433 22.6519 20.4006C18.5531 19.358 14.237 19.5547 10.25 20.966V7.875C10.25 5.98533 11.0007 4.17306 12.3369 2.83686C13.6731 1.50067 15.4853 0.75 17.375 0.75H34ZM38.75 1.9375V17.375C38.75 18.0049 39.0002 18.609 39.4456 19.0544C39.891 19.4998 40.4951 19.75 41.125 19.75H56.5625L38.75 1.9375ZM27.331 54.4393C23.9649 56.9563 19.7703 58.105 15.5914 57.6541C11.4125 57.2031 7.55946 55.186 4.80781 52.0088C2.05616 48.8315 0.610108 44.7299 0.760681 40.5294C0.911254 36.329 2.64727 32.3414 5.61936 29.3694C8.59145 26.3973 12.579 24.6613 16.7794 24.5107C20.9799 24.3601 25.0815 25.8062 28.2588 28.5578C31.436 31.3095 33.4531 35.1625 33.9041 39.3414C34.355 43.5203 33.2063 47.7149 30.6892 51.081L42.8017 63.1935C43.2477 63.6388 43.4985 64.2431 43.4989 64.8733C43.4994 65.5036 43.2495 66.1082 42.8041 66.5541C42.3588 67.0001 41.7545 67.2509 41.1243 67.2513C40.4941 67.2518 39.8895 67.0018 39.4435 66.5565L27.331 54.444V54.4393ZM29.25 41.125C29.25 37.9756 27.9989 34.9551 25.7719 32.7281C23.5449 30.5011 20.5244 29.25 17.375 29.25C14.2256 29.25 11.2051 30.5011 8.9781 32.7281C6.75111 34.9551 5.5 37.9756 5.5 41.125C5.5 44.2744 6.75111 47.2949 8.9781 49.5219C11.2051 51.7489 14.2256 53 17.375 53C20.5244 53 23.5449 51.7489 25.7719 49.5219C27.9989 47.2949 29.25 44.2744 29.25 41.125V41.125Z" fill="black"/>
</svg>
